<?xml version="1.0" encoding="UTF-8" standalone="no"?>
<svg
   xmlns:dc="http://purl.org/dc/elements/1.1/"
   xmlns:cc="http://creativecommons.org/ns#"
   xmlns:rdf="http://www.w3.org/1999/02/22-rdf-syntax-ns#"
   xmlns:svg="http://www.w3.org/2000/svg"
   xmlns="http://www.w3.org/2000/svg"
   xmlns:xlink="http://www.w3.org/1999/xlink"
   xmlns:sodipodi="http://sodipodi.sourceforge.net/DTD/sodipodi-0.dtd"
   xmlns:inkscape="http://www.inkscape.org/namespaces/inkscape"
   sodipodi:docname="default-pic.svg"
   inkscape:version="1.0 (1.0+r73+1)"
   id="svg8"
   version="1.1"
   viewBox="0 0 92.604165 52.916668"
   height="200"
   width="350">
  <defs
     id="defs2">
    <linearGradient
       id="linearGradient1523">
      <stop
         offset="0"
         id="stop1519"
         stop-color="#f0f9a6"
         stop-opacity="1" />
      <stop
         offset="1"
         id="stop1521"
         stop-color="#f0f9a6"
         stop-opacity="0" />
    </linearGradient>
    <linearGradient
       xlink:href="#linearGradient1523"
       id="linearGradient1514"
       gradientUnits="userSpaceOnUse"
       gradientTransform="matrix(0.7115,0,0,0.7115,-279.498,46.75)"
       x1="89.753998"
       y1="100.608"
       x2="89.753998"
       y2="259.17801" />
    <linearGradient
       xlink:href="#linearGradient1523"
       id="linearGradient1531"
       gradientUnits="userSpaceOnUse"
       gradientTransform="matrix(0.7115,0,0,0.7115,-215.495,-179.433)"
       x1="-8.408"
       y1="379.23901"
       x2="-8.408"
       y2="583.11499" />
    <marker
       id="marker2904"
       refX="0"
       refY="0"
       orient="auto"
       overflow="visible">
      <path
         d="M 10,0 14,-4 0,0 14,4 Z"
         id="path2902"
         fill-rule="evenodd"
         stroke="#000000"
         stroke-width="0.8pt" />
    </marker>
    <marker
       id="Arrow1Lstart"
       refX="0"
       refY="0"
       orient="auto"
       overflow="visible">
      <path
         d="M 10,0 14,-4 0,0 14,4 Z"
         id="path2632"
         fill-rule="evenodd"
         stroke="#000000"
         stroke-width="0.8pt" />
    </marker>
    <mask
       maskUnits="userSpaceOnUse"
       id="mask1510">
      <path
         id="path1512"
         d="M -146.623,231.06 V 61.823 H -447.636 V 231.06 Z"
         display="inline"
         fill="url(#linearGradient1514)"
         fill-opacity="1"
         stroke="none"
         stroke-width="0.265"
         stroke-linecap="butt"
         stroke-linejoin="miter"
         stroke-opacity="1" />
    </mask>
    <mask
       maskUnits="userSpaceOnUse"
       id="mask1527">
      <path
         d="M -86.32,247.966 V 59.716 h -188.25 v 188.25 z"
         id="path1529"
         display="inline"
         fill="url(#linearGradient1531)"
         fill-opacity="1"
         stroke="none"
         stroke-width="0.265"
         stroke-linecap="butt"
         stroke-linejoin="miter"
         stroke-opacity="1" />
    </mask>
  </defs>
  <sodipodi:namedview
     inkscape:pagecheckerboard="true"
     inkscape:snap-page="true"
     inkscape:window-maximized="1"
     inkscape:window-y="0"
     inkscape:window-x="0"
     inkscape:window-height="739"
     inkscape:window-width="1366"
     units="px"
     showgrid="false"
     inkscape:document-rotation="0"
     inkscape:current-layer="layer1"
     inkscape:document-units="mm"
     inkscape:cy="-31.878283"
     inkscape:cx="74.767971"
     inkscape:zoom="0.84448753"
     inkscape:pageshadow="2"
     inkscape:pageopacity="0.0"
     borderopacity="1.0"
     bordercolor="#666666"
     pagecolor="#ffffff"
     id="base" />
  <metadata
     id="metadata5">
    <rdf:RDF>
      <cc:Work
         rdf:about="">
        <dc:format>image/svg+xml</dc:format>
        <dc:type
           rdf:resource="http://purl.org/dc/dcmitype/StillImage" />
        <dc:title></dc:title>
      </cc:Work>
    </rdf:RDF>
  </metadata>
  <g
     id="layer1"
     inkscape:groupmode="layer"
     inkscape:label="Layer 1">
    <path
       id="path851"
       d="M 0,0 H 92.604166 V 52.916666 H 0 Z"
       style="font-variation-settings:normal;opacity:1;vector-effect:none;fill:#ffffff;fill-opacity:1;stroke:none;stroke-width:0.132292;stroke-linecap:butt;stroke-linejoin:miter;stroke-miterlimit:4;stroke-dasharray:none;stroke-dashoffset:0;stroke-opacity:1;stop-color:#000000;stop-opacity:1" />
    <text
       id="text6638"
       y="209.65419"
       x="-44.718643"
       style="line-height:1.25;text-align:center;letter-spacing:0;word-spacing:0"
       xml:space="preserve"
       font-size="4.34371px"
       font-family="sans-serif"
       text-anchor="middle"
       stroke-width="0.264996" />
    <path
       stroke-width="1"
       stroke="none"
       fill-opacity="1"
       fill="#dc3545"
       display="inline"
       font-family="Inter"
       font-size="32.411px"
       font-stretch="normal"
       font-weight="600"
       font-variant="normal"
       font-style="normal"
       style="line-height:1.25;-inkscape-font-specification:'Inter Semi-Bold';letter-spacing:0;word-spacing:0;fill:#f1afb5"
       d="m 46.20538,15.994288 1.498268,11.279491 4.229822,0.0073 -3.459775,-9.813446 z m 0,0 -2.083265,1.474405 -3.453811,9.812251 4.281131,-0.0024 z m -2.942842,1.581849 c -4.082962,1.291745 -7.048491,5.114452 -7.048491,9.620041 0,1.83495 0.494245,3.55648 1.353822,5.040434 l 0.526503,-1.356213 a 8.9777497,8.9777497 0 0 1 -0.787965,-3.684221 8.9896881,8.9896881 0 0 1 5.428436,-8.262632 z m 6.241446,0.05492 0.513355,1.369346 a 8.9873006,8.9873006 0 0 1 5.281605,8.195775 8.9741682,8.9741682 0 0 1 -0.811845,3.736749 l 0.513355,1.366962 a 10.02595,10.02595 0 0 0 1.389658,-5.10371 c 0,-4.445894 -2.887926,-8.224429 -6.886128,-9.565122 z m 4.704957,9.278598 -6.045661,1.674971 -1.861215,3.027604 -1.861186,-3.027604 -5.960902,-1.548423 7.792245,8.194584 h 0.07388 l 0.01745,-0.03581 z m -14.198438,2.239662 -2.730332,7.75286 6.144731,-1.744215 0.188483,-0.925232 z m 12.583153,0.0035 -3.517076,4.959254 0.232696,1.091177 6.020588,1.713175 z m -15.317092,7.75764 v 0.01192 h 5.791383 l 0.0012,-0.0047 z"
       id="path2903" />
  </g>
  <style
     id="style9440" />
</svg>
